<?xml version="1.0" encoding="utf-8"?>
<!-- Generator: Adobe Illustrator 17.1.0, SVG Export Plug-In . SVG Version: 6.00 Build 0)  -->
<!DOCTYPE svg PUBLIC "-//W3C//DTD SVG 1.1//EN" "http://www.w3.org/Graphics/SVG/1.1/DTD/svg11.dtd">
<svg version="1.1" id="Layer_1" xmlns="http://www.w3.org/2000/svg" xmlns:xlink="http://www.w3.org/1999/xlink" x="0px" y="0px"
	 width="24px" height="24px" viewBox="0 0 24 24" enable-background="new 0 0 24 24" xml:space="preserve">
<path fill="#FDB930" d="M12.1,8.2c0.9-1.3,2.1-3.3,2.9-4.5c0.2-0.3-2.6,0.3-3.7,0.6c-1,0.3-2,0.6-2.9,0.8C7.6,5.3,6.8,5.6,6,5.7
	C5.3,5.8,4.7,5.9,4.3,5.9c-0.3,0-0.6-0.1-0.7-0.3C3.4,5.3,3.3,5,3.4,4.7c0-0.3,0.1-0.9,0.3-1.3s0.3-0.8,0.6-1.1
	c0.2-0.4,0.5-0.7,0.8-1C5.2,1,5.5,0.8,5.8,0.7C6.3,0.6,7,0.5,8,0.6c0.9,0.1,1.9,0.1,2.9,0.2c1,0.1,2.1,0.1,3.1,0.1
	c1,0,2.2-0.3,2.7-0.5C17.1,0.1,17.5-0.1,18,0c0.5,0.1,1,0.3,1.4,0.6c0.4,0.3,0.8,0.7,1,1.2c0.2,0.5,0.2,1,0,1.5
	c-0.1,0.2-0.3,0.7-0.8,1.1c-2.1,1.9-4.3,4.8-5.8,6.7c-3.1,4-3.8,5.5-4.5,6.7c-1,1.6-2.9,5.5-3.2,5.8C5.8,24.1,5.4,24,5,23.9
	c-0.3-0.1-0.7-0.6-0.5-1.2c0.1-0.4,3.5-7.1,4.2-8.5C9.3,13.1,11.1,9.8,12.1,8.2z"/>
</svg>
