<?xml version="1.0" encoding="utf-8"?>
<!-- Generator: Adobe Illustrator 17.1.0, SVG Export Plug-In . SVG Version: 6.00 Build 0)  -->
<!DOCTYPE svg PUBLIC "-//W3C//DTD SVG 1.1//EN" "http://www.w3.org/Graphics/SVG/1.1/DTD/svg11.dtd">
<svg version="1.1" id="Layer_1" xmlns="http://www.w3.org/2000/svg" xmlns:xlink="http://www.w3.org/1999/xlink" x="0px" y="0px"
	 width="25px" height="25px" viewBox="0 0 25 25" enable-background="new 0 0 25 25" xml:space="preserve">
<g>
	<path fill="#00A3D4" d="M12.5,8.8L12.5,8.8L6.6,0.9C6.2,0.4,5.8,0,4.8,0c-1,0-1.7,0.8-1.7,1.8c0,0.4,0.2,1,0.7,1.6l6.3,8.3L3,21.2
		c-0.6,0.9-0.8,1.5-0.8,1.9c0,1,0.8,1.8,1.8,1.8c0.7,0,1.4-0.3,1.8-0.9l6.7-9.4l2.2-3.1L12.5,8.8z"/>
	<path fill="#00A3D4" d="M16.2,10l5-6.5c0.5-0.6,0.7-1.2,0.7-1.6c0-1-0.7-1.8-1.7-1.8c-0.9,0-1.3,0.4-1.7,0.9L13.8,7L16.2,10z"/>
	<path fill="#00A3D4" d="M22,21.2l-5.7-7.5l-2.4,3l5.3,7.3c0.4,0.6,1.1,0.9,1.8,0.9c1.1,0,1.8-0.8,1.8-1.8
		C22.9,22.7,22.7,22.1,22,21.2z"/>
</g>
</svg>
