<?xml version="1.0" encoding="utf-8"?>
<!-- Generator: Adobe Illustrator 17.1.0, SVG Export Plug-In . SVG Version: 6.00 Build 0)  -->
<!DOCTYPE svg PUBLIC "-//W3C//DTD SVG 1.1//EN" "http://www.w3.org/Graphics/SVG/1.1/DTD/svg11.dtd">
<svg version="1.1" id="Layer_1" xmlns="http://www.w3.org/2000/svg" xmlns:xlink="http://www.w3.org/1999/xlink" x="0px" y="0px"
	 width="24px" height="24px" viewBox="0 0 24 24" enable-background="new 0 0 24 24" xml:space="preserve">
<g>
	<path fill="#524947" d="M20.4,18H3.6c-1.3,0-2.4,1.1-2.4,2.4c0,1.3,1.1,2.4,2.4,2.4h16.7c1.3,0,2.4-1.1,2.4-2.4
		C22.8,19,21.7,18,20.4,18z"/>
	<path fill="#524947" d="M20.4,9.6H3.6c-1.3,0-2.4,1.1-2.4,2.4s1.1,2.4,2.4,2.4h16.7c1.3,0,2.4-1.1,2.4-2.4S21.7,9.6,20.4,9.6z"/>
	<path fill="#524947" d="M20.4,1.2H3.6c-1.3,0-2.4,1.1-2.4,2.4S2.3,6,3.6,6h16.7c1.3,0,2.4-1.1,2.4-2.4S21.7,1.2,20.4,1.2z"/>
</g>
</svg>
