<?xml version="1.0" encoding="utf-8"?>
<!-- Generator: Adobe Illustrator 17.1.0, SVG Export Plug-In . SVG Version: 6.00 Build 0)  -->
<!DOCTYPE svg PUBLIC "-//W3C//DTD SVG 1.1//EN" "http://www.w3.org/Graphics/SVG/1.1/DTD/svg11.dtd">
<svg version="1.1" id="Layer_1" xmlns="http://www.w3.org/2000/svg" xmlns:xlink="http://www.w3.org/1999/xlink" x="0px" y="0px"
	 width="25px" height="25px" viewBox="0 0 25 25" enable-background="new 0 0 25 25" xml:space="preserve">
<path fill="#73BEBE" d="M0.5,12.9c0,4.9,2.9,9.2,7,11.2l-6-16.3C0.9,9.4,0.5,11.1,0.5,12.9z M21.4,12.3c0-1.5-0.6-2.6-1-3.4
	c-0.6-1-1.2-1.9-1.2-2.9c0-1.1,0.9-2.2,2.1-2.2c0.1,0,0.1,0,0.2,0c-2.2-2-5.2-3.3-8.4-3.3c-4.4,0-8.2,2.2-10.4,5.6
	c0.3,0,0.6,0,0.8,0c1.3,0,3.3-0.2,3.3-0.2c0.7,0,0.8,1,0.1,1c0,0-0.7,0.1-1.4,0.1L10,20.5l2.7-8.2L10.8,7C10,7,9.4,6.9,9.4,6.9
	c-0.7,0-0.6-1.1,0.1-1c0,0,2.1,0.2,3.3,0.2c1.3,0,3.3-0.2,3.3-0.2c0.7,0,0.8,1,0.1,1c0,0-0.7,0.1-1.4,0.1l4.5,13.4l1.2-4.2
	C21.1,14.7,21.4,13.4,21.4,12.3z M13.2,14L9.5,24.9c1.1,0.3,2.3,0.5,3.5,0.5c1.5,0,2.9-0.3,4.1-0.7c0-0.1-0.1-0.1-0.1-0.2L13.2,14z
	 M24,6.9c0,0.4,0,0.9,0,1.3c0,1.3-0.2,2.7-1,4.5l-3.8,11c3.7-2.2,6.2-6.2,6.2-10.8C25.5,10.7,24.9,8.7,24,6.9z"/>
</svg>
