<?xml version="1.0" encoding="utf-8"?>
<!-- Generator: Adobe Illustrator 17.1.0, SVG Export Plug-In . SVG Version: 6.00 Build 0)  -->
<!DOCTYPE svg PUBLIC "-//W3C//DTD SVG 1.1//EN" "http://www.w3.org/Graphics/SVG/1.1/DTD/svg11.dtd">
<svg version="1.1" id="Layer_1" xmlns="http://www.w3.org/2000/svg" xmlns:xlink="http://www.w3.org/1999/xlink" x="0px" y="0px"
	 width="25px" height="25px" viewBox="0 0 25 25" enable-background="new 0 0 25 25" xml:space="preserve">
<g>
	<path d="M18.8,12.4c0-0.5,0,8.2,0,8.2H6.2c0,0,0-8.6,0-8.2c-0.2,0.5-1.3,1.3-2.3,1.3c0-0.5,0,9.2,0,9.2h17.2c0,0,0-9.7,0-9.2
		C20.2,13.7,19,12.9,18.8,12.4z"/>
	<path d="M24.7,8.3l-2.2-6.2H2.9L0.3,8.4c0,0,0,0,0,0l0,0.1h0C0.1,8.9,0.1,9.2,0.1,9.6c0,1.7,1.4,3.1,3.1,3.1c1.7,0,3.1-1.4,3.1-3.1
		c0-0.4,0-0.4,0,0c0,1.7,1.4,3.1,3.1,3.1s3.1-1.4,3.1-3.1c0-0.4,0-0.4,0,0c0,1.7,1.4,3.1,3.1,3.1c1.7,0,3.1-1.4,3.1-3.1
		c0-0.4,0-0.4,0,0c0,1.7,1.4,3.1,3.1,3.1c1.7,0,3.1-1.4,3.1-3.1C24.9,9.1,24.8,8.7,24.7,8.3z"/>
</g>
</svg>
