<?xml version="1.0" encoding="utf-8"?>
<!-- Generator: Adobe Illustrator 17.1.0, SVG Export Plug-In . SVG Version: 6.00 Build 0)  -->
<!DOCTYPE svg PUBLIC "-//W3C//DTD SVG 1.1//EN" "http://www.w3.org/Graphics/SVG/1.1/DTD/svg11.dtd">
<svg version="1.1" id="Capa_1" xmlns="http://www.w3.org/2000/svg" xmlns:xlink="http://www.w3.org/1999/xlink" x="0px" y="0px"
	 width="25px" height="25px" viewBox="-1.7 -1.9 25 25" enable-background="new -1.7 -1.9 25 25" xml:space="preserve">
<path d="M19.7,7.8L19,6.4c0,0,1.4-3.2,1.3-3.4l-1.9-1.9c-0.1-0.1-3.4,1.4-3.4,1.4l-1.5-0.6c0,0-1.3-3.3-1.5-3.3H9.4
	C9.2-1.4,8,1.9,8,1.9L6.5,2.5c0,0-3.3-1.4-3.4-1.3L1.2,3.1C1,3.2,2.5,6.4,2.5,6.4L1.9,7.8c0,0-3.4,1.3-3.4,1.5v2.6
	c0,0.2,3.4,1.4,3.4,1.4l0.6,1.5c0,0-1.4,3.2-1.3,3.4L3.1,20c0.1,0.1,3.4-1.4,3.4-1.4L8,19.3c0,0,1.3,3.3,1.5,3.3h2.7
	c0.2,0,1.4-3.3,1.4-3.3l1.5-0.6c0,0,3.3,1.4,3.4,1.3l1.9-1.9c0.1-0.1-1.4-3.3-1.4-3.3l0.6-1.5c0,0,3.4-1.3,3.4-1.5V9.2
	C23,9,19.7,7.8,19.7,7.8z M14.7,10.6c0,2.1-1.8,3.8-3.9,3.8c-2.2,0-3.9-1.7-3.9-3.8s1.8-3.8,3.9-3.8C13,6.7,14.7,8.5,14.7,10.6z"/>
</svg>
