<?xml version="1.0" encoding="utf-8"?>
<!-- Generator: Adobe Illustrator 17.1.0, SVG Export Plug-In . SVG Version: 6.00 Build 0)  -->
<!DOCTYPE svg PUBLIC "-//W3C//DTD SVG 1.1//EN" "http://www.w3.org/Graphics/SVG/1.1/DTD/svg11.dtd">
<svg version="1.1" id="Capa_1" xmlns="http://www.w3.org/2000/svg" xmlns:xlink="http://www.w3.org/1999/xlink" x="0px" y="0px"
	 width="50px" height="50px" viewBox="0 0 50 50" enable-background="new 0 0 50 50" xml:space="preserve">
<g>
	<path fill="#359C9C" d="M42.5,31.9v11.4H7.7V31.9H0.9v14.7c0,1.8,1.5,3.3,3.3,3.3h41.5c1.9,0,3.3-1.5,3.3-3.3V31.9H42.5z"/>
	<path fill="#359C9C" d="M24.5,30.8l-9.6-11.6c0,0-1.5-1.4,0.1-1.4c1.6,0,5.4,0,5.4,0s0-0.9,0-2.4c0-4.1,0-11.5,0-14.5
		c0,0-0.2-0.8,1-0.8s6.7,0,7.6,0c0.9,0,0.9,0.7,0.9,0.7c0,2.9,0,10.6,0,14.5c0,1.3,0,2.1,0,2.1s3.1,0,5,0c1.9,0,0.5,1.4,0.5,1.4
		S27.2,29.6,26,30.7C25.2,31.7,24.5,30.8,24.5,30.8z"/>
</g>
</svg>
