<?xml version="1.0" encoding="utf-8"?>
<!-- Generator: Adobe Illustrator 17.1.0, SVG Export Plug-In . SVG Version: 6.00 Build 0)  -->
<!DOCTYPE svg PUBLIC "-//W3C//DTD SVG 1.1//EN" "http://www.w3.org/Graphics/SVG/1.1/DTD/svg11.dtd">
<svg version="1.1" id="Capa_1" xmlns="http://www.w3.org/2000/svg" xmlns:xlink="http://www.w3.org/1999/xlink" x="0px" y="0px"
	 width="25px" height="25px" viewBox="487.5 487.5 25 25" enable-background="new 487.5 487.5 25 25" xml:space="preserve">
<g>
	<path d="M511.2,496.4l-9.3,0c0,0,0.5-2.2,0.6-3.3c0.1-0.7,0.1-1.4-0.1-2.1c-0.2-1.1-0.5-1.7-0.9-2.5c-0.2-0.4-0.7-0.7-1.2-0.7h-1.8
		c-0.7,0-1.3,0.6-1.3,1.3c0,1.2,0,2.8,0,2.9c-0.7,1.5-1.5,2.9-2.5,4.3c-0.4,0.6-0.9,1.2-1.4,1.8c-0.2,0.2-0.3,0.6-0.3,0.9v11.5
		c0,0.3,0.1,0.7,0.4,0.9c0.4,0.4,1,0.8,2,0.8c3.3,0,8.6,0,12.3,0c0.5,0,0.9-0.2,1.1-0.7l3.3-5.7c0.2-0.4,0.3-0.8,0.3-1.3l0-6.8
		C512.5,497,511.9,496.4,511.2,496.4z"/>
	<path d="M490,498.3h-1.2c-0.7,0-1.3,0.6-1.3,1.3v11.3c0,0.7,0.6,1.3,1.3,1.3h1.2c0.7,0,1.3-0.6,1.3-1.3v-11.3
		C491.3,498.9,490.7,498.3,490,498.3z"/>
</g>
</svg>
